<svg xmlns="http://www.w3.org/2000/svg" viewBox="0 0 316.82 89.83">
	<defs>
		<style>
			.cls-1{fill:#4fdbd1;}.cls-2{fill:#56f4ec;}.cls-3{fill:#fff;}.cls-4{fill:#ebeaea;}.cls-5{fill:#231f20;}
			@media (prefers-color-scheme: dark) {
				.cls-5 { fill: #ffffff; }
			}
		</style>
	</defs>
	<g id="Layer_2" data-name="Layer 2">
		<g id="Layer_1-2" data-name="Layer 1">
			<g id="code_html5">
				<polygon class="cls-1"
					points="79.37 0 39.69 0 39.69 0 0 0 7.44 80.69 39.69 89.83 39.69 89.83 39.69 89.83 39.69 89.83 39.69 89.83 71.92 80.69 79.37 0" />
				<polygon class="cls-2"
					points="39.69 6.57 39.69 82.99 39.69 82.99 65.8 75.59 72.16 6.57 39.69 6.57" />
				<rect class="cls-3" x="23.25" y="21.07" width="32.88" height="9.02" />
				<rect class="cls-3" x="35.24" y="9.38" width="8.89" height="32.39" />
				<rect class="cls-3" x="23.49" y="58.33" width="32.39" height="8.89" />
				<rect class="cls-3" x="35.24" y="46.58" width="8.89" height="32.39" />
				<rect class="cls-4" x="35.24" y="9.38" width="4.45" height="32.39" />
				<rect class="cls-4" x="23.49" y="58.33" width="16.2" height="8.89" />
				<rect class="cls-4" x="35.24" y="46.58" width="4.45" height="32.39" />
				<path class="cls-5"
					d="M126.25,64.23a19.76,19.76,0,0,1-14.22,6,20.07,20.07,0,1,1,14.14-34.36l-5.3,5.38A12.51,12.51,0,1,0,112,62.63a12.1,12.1,0,0,0,8.92-3.7Z"
					transform="translate(0 -1.12)" />
				<path class="cls-5"
					d="M167.64,70.25h-7.09V50.1c0-7-5.28-12.52-11.77-12.52S137.08,43,137,49.94V70.17h-7.09v-60H137v24.4a18.09,18.09,0,0,1,11.78-4.41c10.41,0,18.79,8.91,18.86,20Z"
					transform="translate(0 -1.12)" />
				<path class="cls-5"
					d="M211.16,50.26a19.91,19.91,0,1,1-3.53-11.56l-22.4,22.48A12.85,12.85,0,0,0,191,62.63a12.42,12.42,0,0,0,12.6-12.37ZM179.93,55.8l16.86-16.86A13.1,13.1,0,0,0,191,37.58a12.39,12.39,0,0,0-12.37,12.68A13.06,13.06,0,0,0,179.93,55.8Z"
					transform="translate(0 -1.12)" />
				<path class="cls-5"
					d="M252.59,50.26a19.91,19.91,0,1,1-3.53-11.56l-22.4,22.48a12.85,12.85,0,0,0,5.78,1.45A12.42,12.42,0,0,0,245,50.26ZM221.36,55.8l16.86-16.86a13.1,13.1,0,0,0-5.78-1.36,12.39,12.39,0,0,0-12.37,12.68A12.91,12.91,0,0,0,221.36,55.8Z"
					transform="translate(0 -1.12)" />
				<path class="cls-5"
					d="M256.12,70.25V30.51h7.55V34.6a20,20,0,0,1,12.52-4.41v7.55a12.49,12.49,0,0,0-12.52,12.52v20Z"
					transform="translate(0 -1.12)" />
				<path class="cls-5"
					d="M276.76,50.26a20,20,0,1,1,20,20,19.7,19.7,0,0,1-12.45-4.33v23.6h-7.54Zm32.51,0a12.49,12.49,0,1,0-25,0v.08a12.49,12.49,0,1,0,25-.08Z"
					transform="translate(0 -1.12)" />
			</g>
		</g>
	</g>
</svg>
